{
  "accessors": [
    {
      "bufferView": 2,
      "componentType": 5126,
      "count": 9894,
      "max": [
        2.0447959899902344,
        1.2280340194702148,
        0.99965900182724
      ],
      "min": [
        -0.8741729855537415,
        -2.141118049621582,
        -3.435465097427368
      ],
      "type": "VEC3"
    },
    {
      "bufferView": 2,
      "byteOffset": 118728,
      "componentType": 5126,
      "count": 9894,
      "max": [
        0.9984833598136902,
        0.9999157786369324,
        0.9998602271080017
      ],
      "min": [
        -0.9997692108154297,
        -0.9999978542327881,
        -0.9994269013404846
      ],
      "type": "VEC3"
    },
    {
      "bufferView": 3,
      "componentType": 5126,
      "count": 9894,
      "max": [
        0.999737560749054,
        0.9999905824661255,
        0.9999547600746155,
        1.0
      ],
      "min": [
        -0.9998983144760132,
        -0.9999783039093018,
        -0.9995396137237549,
        1.0
      ],
      "type": "VEC4"
    },
    {
      "bufferView": 1,
      "componentType": 5126,
      "count": 9894,
      "max": [
        0.9691799879074097,
        0.9980400204658508
      ],
      "min": [
        0.0019499999471008778,
        0.0019499999471008778
      ],
      "type": "VEC2"
    },
    {
      "bufferView": 0,
      "componentType": 5125,
      "count": 9894,
      "type": "SCALAR"
    },
    {
      "bufferView": 2,
      "byteOffset": 237456,
      "componentType": 5126,
      "count": 54409,
      "max": [
        2.109138011932373,
        0.8979099988937378,
        3.308732032775879
      ],
      "min": [
        -3.1679561138153076,
        -4.357944965362549,
        -0.8523240089416504
      ],
      "type": "VEC3"
    },
    {
      "bufferView": 2,
      "byteOffset": 890364,
      "componentType": 5126,
      "count": 54409,
      "max": [
        0.9999490976333618,
        0.9997285008430481,
        0.9999321103096008
      ],
      "min": [
        -0.9997655153274536,
        -0.9998073577880859,
        -0.9998271465301514
      ],
      "type": "VEC3"
    },
    {
      "bufferView": 3,
      "byteOffset": 158304,
      "componentType": 5126,
      "count": 54409,
      "max": [
        0.9999808073043823,
        0.9999586939811707,
        0.9999857544898987,
        1.0
      ],
      "min": [
        -0.9998180270195007,
        -0.9999871850013733,
        -0.999870777130127,
        -1.0
      ],
      "type": "VEC4"
    },
    {
      "bufferView": 1,
      "byteOffset": 79152,
      "componentType": 5126,
      "count": 54409,
      "max": [
        0.9994999766349792,
        0.9678900241851807
      ],
      "min": [
        0.0,
        0.0
      ],
      "type": "VEC2"
    },
    {
      "bufferView": 0,
      "byteOffset": 39576,
      "componentType": 5125,
      "count": 81648,
      "type": "SCALAR"
    },
    {
      "bufferView": 2,
      "byteOffset": 1543272,
      "componentType": 5126,
      "count": 240,
      "max": [
        0.6158306002616882,
        0.5452871322631836,
        0.5468289256095886
      ],
      "min": [
        -0.6158309578895569,
        -0.5452873110771179,
        -0.54682856798172
      ],
      "type": "VEC3"
    },
    {
      "bufferView": 2,
      "byteOffset": 1546152,
      "componentType": 5126,
      "count": 240,
      "max": [
        0.932083249092102,
        0.9469878077507019,
        0.9252731204032898
      ],
      "min": [
        -0.9320859909057617,
        -0.9469865560531616,
        -0.9252732396125793
      ],
      "type": "VEC3"
    },
    {
      "bufferView": 1,
      "byteOffset": 514424,
      "componentType": 5126,
      "count": 240,
      "max": [
        1.0,
        1.0
      ],
      "min": [
        0.0,
        0.0
      ],
      "type": "VEC2"
    },
    {
      "bufferView": 0,
      "byteOffset": 366168,
      "componentType": 5125,
      "count": 348,
      "type": "SCALAR"
    },
    {
      "bufferView": 2,
      "byteOffset": 1549032,
      "componentType": 5126,
      "count": 192,
      "max": [
        5.980569839477539,
        4.663536548614502,
        6.296492099761963
      ],
      "min": [
        -5.192507743835449,
        -6.769167900085449,
        -6.929220199584961
      ],
      "type": "VEC3"
    },
    {
      "bufferView": 2,
      "byteOffset": 1551336,
      "componentType": 5126,
      "count": 192,
      "max": [
        0.9797466397285461,
        0.9814813733100891,
        0.9888074398040771
      ],
      "min": [
        -0.9797475337982178,
        -0.9814835786819458,
        -0.9888056516647339
      ],
      "type": "VEC3"
    },
    {
      "bufferView": 0,
      "byteOffset": 367560,
      "componentType": 5125,
      "count": 252,
      "type": "SCALAR"
    },
    {
      "bufferView": 2,
      "byteOffset": 1553640,
      "componentType": 5126,
      "count": 439,
      "max": [
        56.971351623535156,
        56.971351623535156,
        56.97135925292969
      ],
      "min": [
        -56.97136306762695,
        -56.971351623535156,
        -56.971378326416016
      ],
      "type": "VEC3"
    },
    {
      "bufferView": 2,
      "byteOffset": 1558908,
      "componentType": 5126,
      "count": 439,
      "max": [
        1.0,
        1.0,
        1.0
      ],
      "min": [
        -1.0,
        -1.0,
        -1.0
      ],
      "type": "VEC3"
    },
    {
      "bufferView": 1,
      "byteOffset": 516344,
      "componentType": 5126,
      "count": 439,
      "max": [
        1.3301180601119995,
        1.33011794090271
      ],
      "min": [
        -0.33011794090270996,
        -0.3301178812980652
      ],
      "type": "VEC2"
    },
    {
      "bufferView": 0,
      "byteOffset": 368568,
      "componentType": 5125,
      "count": 2280,
      "type": "SCALAR"
    },
    {
      "bufferView": 2,
      "byteOffset": 1564176,
      "componentType": 5126,
      "count": 674,
      "max": [
        5.137017726898193,
        4.056788921356201,
        5.217970848083496
      ],
      "min": [
        -5.047524452209473,
        -4.056788921356201,
        -5.228001594543457
      ],
      "type": "VEC3"
    },
    {
      "bufferView": 2,
      "byteOffset": 1572264,
      "componentType": 5126,
      "count": 674,
      "max": [
        0.9898714423179626,
        0.9479570388793945,
        0.9939587712287903
      ],
      "min": [
        -0.994521975517273,
        -0.9479570388793945,
        -0.9735736846923828
      ],
      "type": "VEC3"
    },
    {
      "bufferView": 1,
      "byteOffset": 519856,
      "componentType": 5126,
      "count": 674,
      "max": [
        0.9951171875,
        0.994036078453064
      ],
      "min": [
        0.0048828125,
        0.0048828125
      ],
      "type": "VEC2"
    },
    {
      "bufferView": 0,
      "byteOffset": 377688,
      "componentType": 5125,
      "count": 2448,
      "type": "SCALAR"
    },
    {
      "bufferView": 4,
      "componentType": 5126,
      "count": 4800,
      "max": [
        160.0
      ],
      "min": [
        0.03333333507180214
      ],
      "type": "SCALAR"
    },
    {
      "bufferView": 5,
      "componentType": 5126,
      "count": 4800,
      "max": [
        -2.596747875213623,
        0.37277624011039734,
        2.959848403930664
      ],
      "min": [
        -2.596747875213623,
        0.07277623564004898,
        2.959848403930664
      ],
      "type": "VEC3"
    },
    {
      "bufferView": 4,
      "byteOffset": 19200,
      "componentType": 5126,
      "count": 4800,
      "max": [
        160.0
      ],
      "min": [
        0.03333333507180214
      ],
      "type": "SCALAR"
    },
    {
      "bufferView": 6,
      "componentType": 5126,
      "count": 4800,
      "max": [
        0.0,
        0.08715574443340302,
        0.0,
        1.0
      ],
      "min": [
        0.0,
        -0.08715574443340302,
        0.0,
        0.9961947202682495
      ],
      "type": "VEC4"
    },
    {
      "bufferView": 4,
      "byteOffset": 38400,
      "componentType": 5126,
      "count": 4800,
      "max": [
        160.0
      ],
      "min": [
        0.03333333507180214
      ],
      "type": "SCALAR"
    },
    {
      "bufferView": 6,
      "byteOffset": 76800,
      "componentType": 5126,
      "count": 4800,
      "max": [
        8.36434976897373e-17,
        1.0,
        8.36434976897373e-17,
        1.0
      ],
      "min": [
        -8.659560603426554e-17,
        -0.8657299876213074,
        -8.659560603426554e-17,
        -0.49994465708732605
      ],
      "type": "VEC4"
    }
  ],
  "animations": [
    {
      "channels": [
        {
          "sampler": 0,
          "target": {
            "node": 8,
            "path": "translation"
          }
        },
        {
          "sampler": 1,
          "target": {
            "node": 8,
            "path": "rotation"
          }
        },
        {
          "sampler": 2,
          "target": {
            "node": 14,
            "path": "rotation"
          }
        }
      ],
      "name": "Take 001",
      "samplers": [
        {
          "input": 25,
          "interpolation": "LINEAR",
          "output": 26
        },
        {
          "input": 27,
          "interpolation": "LINEAR",
          "output": 28
        },
        {
          "input": 29,
          "interpolation": "LINEAR",
          "output": 30
        }
      ]
    }
  ],
  "asset": {
    "extras": {
      "author": "Daniele De Filippis (https://sketchfab.com/danieledefilippis)",
      "license": "CC-BY-4.0 (http://creativecommons.org/licenses/by/4.0/)",
      "source": "https://sketchfab.com/3d-models/a-portrait-from-the-future-633c5b052b284d8e849da102a561becf",
      "title": "A Portrait from the Future"
    },
    "generator": "Sketchfab-10.66.0",
    "version": "2.0"
  },
  "bufferViews": [
    {
      "buffer": 0,
      "byteLength": 387480,
      "name": "floatBufferViews",
      "target": 34963
    },
    {
      "buffer": 0,
      "byteLength": 525248,
      "byteOffset": 387480,
      "byteStride": 8,
      "name": "floatBufferViews",
      "target": 34962
    },
    {
      "buffer": 0,
      "byteLength": 1580352,
      "byteOffset": 912728,
      "byteStride": 12,
      "name": "floatBufferViews",
      "target": 34962
    },
    {
      "buffer": 0,
      "byteLength": 1028848,
      "byteOffset": 2493080,
      "byteStride": 16,
      "name": "floatBufferViews",
      "target": 34962
    },
    {
      "buffer": 0,
      "byteLength": 57600,
      "byteOffset": 3521928,
      "name": "floatBufferViews"
    },
    {
      "buffer": 0,
      "byteLength": 57600,
      "byteOffset": 3579528,
      "byteStride": 12,
      "name": "floatBufferViews"
    },
    {
      "buffer": 0,
      "byteLength": 153600,
      "byteOffset": 3637128,
      "byteStride": 16,
      "name": "floatBufferViews"
    }
  ],
  "buffers": [
    {
      "byteLength": 3790728,
      "uri": "scene.bin"
    }
  ],
  "extensionsUsed": [
    "KHR_texture_transform",
    "KHR_materials_transmission"
  ],
  "images": [
    {
      "uri": "textures/helmet_baseColor.png"
    },
    {
      "uri": "textures/helmet_metallicRoughness.png"
    },
    {
      "uri": "textures/helmet_emissive.png"
    },
    {
      "uri": "textures/helmet_normal.png"
    },
    {
      "uri": "textures/body_baseColor.png"
    },
    {
      "uri": "textures/body_metallicRoughness.png"
    },
    {
      "uri": "textures/body_emissive.png"
    },
    {
      "uri": "textures/body_normal.png"
    },
    {
      "uri": "textures/sphere_baseColor.jpeg"
    },
    {
      "uri": "textures/sphere_emissive.jpeg"
    },
    {
      "uri": "textures/lambert1_baseColor.png"
    },
    {
      "uri": "textures/lambert1_emissive.jpeg"
    },
    {
      "uri": "textures/lambert1_transmission.png"
    }
  ],
  "materials": [
    {
      "alphaMode": "BLEND",
      "emissiveFactor": [
        1.0,
        1.0,
        1.0
      ],
      "emissiveTexture": {
        "index": 2
      },
      "name": "helmet",
      "normalTexture": {
        "index": 3
      },
      "occlusionTexture": {
        "index": 1
      },
      "pbrMetallicRoughness": {
        "baseColorTexture": {
          "index": 0
        },
        "metallicRoughnessTexture": {
          "index": 1
        }
      }
    },
    {
      "alphaMode": "BLEND",
      "emissiveFactor": [
        1.0,
        1.0,
        1.0
      ],
      "emissiveTexture": {
        "index": 6
      },
      "name": "body",
      "normalTexture": {
        "index": 7
      },
      "occlusionTexture": {
        "index": 5
      },
      "pbrMetallicRoughness": {
        "baseColorTexture": {
          "index": 4
        },
        "metallicRoughnessTexture": {
          "index": 5
        }
      }
    },
    {
      "doubleSided": true,
      "emissiveFactor": [
        0.0,
        0.14139134381343924,
        1.0
      ],
      "name": "shape_small",
      "pbrMetallicRoughness": {
        "metallicFactor": 0.0,
        "roughnessFactor": 0.0
      }
    },
    {
      "emissiveFactor": [
        0.0,
        1.0,
        0.7052122538742049
      ],
      "name": "lambert4",
      "pbrMetallicRoughness": {
        "baseColorFactor": [
          0.0,
          0.0,
          0.0,
          1.0
        ],
        "metallicFactor": 0.0,
        "roughnessFactor": 0.0
      }
    },
    {
      "alphaMode": "BLEND",
      "emissiveFactor": [
        0.5,
        0.5,
        0.5
      ],
      "emissiveTexture": {
        "index": 9
      },
      "name": "sphere",
      "pbrMetallicRoughness": {
        "baseColorFactor": [
          0.0,
          0.0,
          0.0,
          0.5
        ],
        "baseColorTexture": {
          "index": 8
        },
        "metallicFactor": 0.0,
        "roughnessFactor": 0.0
      }
    },
    {
      "alphaMode": "BLEND",
      "doubleSided": true,
      "emissiveFactor": [
        0.75,
        0.75,
        0.75
      ],
      "emissiveTexture": {
        "index": 11
      },
      "extensions": {
        "KHR_materials_transmission": {
          "transmissionFactor": 1.0,
          "transmissionTexture": {
            "extensions": {
              "KHR_texture_transform": {
                "scale": [
                  1.5,
                  1.5
                ]
              }
            },
            "index": 12
          }
        }
      },
      "name": "lambert1",
      "pbrMetallicRoughness": {
        "baseColorTexture": {
          "index": 10
        },
        "metallicFactor": 0.0,
        "roughnessFactor": 0.0
      }
    }
  ],
  "meshes": [
    {
      "name": "body_helmet_LP:hemet_helmet_0",
      "primitives": [
        {
          "attributes": {
            "NORMAL": 1,
            "POSITION": 0,
            "TANGENT": 2,
            "TEXCOORD_0": 3
          },
          "indices": 4,
          "material": 0,
          "mode": 4
        }
      ]
    },
    {
      "name": "body_helmet_LP:body_body_0",
      "primitives": [
        {
          "attributes": {
            "NORMAL": 6,
            "POSITION": 5,
            "TANGENT": 7,
            "TEXCOORD_0": 8
          },
          "indices": 9,
          "material": 1,
          "mode": 4
        }
      ]
    },
    {
      "name": "shape_small1_shape_small_0",
      "primitives": [
        {
          "attributes": {
            "NORMAL": 11,
            "POSITION": 10,
            "TEXCOORD_0": 12
          },
          "indices": 13,
          "material": 2,
          "mode": 4
        }
      ]
    },
    {
      "name": "shapes_big_lambert4_0",
      "primitives": [
        {
          "attributes": {
            "NORMAL": 15,
            "POSITION": 14
          },
          "indices": 16,
          "material": 3,
          "mode": 4
        }
      ]
    },
    {
      "name": "back_sphere_0",
      "primitives": [
        {
          "attributes": {
            "NORMAL": 18,
            "POSITION": 17,
            "TEXCOORD_0": 19
          },
          "indices": 20,
          "material": 4,
          "mode": 4
        }
      ]
    },
    {
      "name": "screens_lambert1_0",
      "primitives": [
        {
          "attributes": {
            "NORMAL": 22,
            "POSITION": 21,
            "TEXCOORD_0": 23
          },
          "indices": 24,
          "material": 5,
          "mode": 4
        }
      ]
    }
  ],
  "nodes": [
    {
      "children": [
        1
      ],
      "matrix": [
        0.1666666716337204,
        0.0,
        0.0,
        0.0,
        0.0,
        3.700743525707937e-17,
        -0.1666666716337204,
        0.0,
        0.0,
        0.1666666716337204,
        3.700743525707937e-17,
        0.0,
        0.0,
        0.0,
        0.0,
        1.0
      ],
      "name": "Sketchfab_model"
    },
    {
      "children": [
        2
      ],
      "matrix": [
        1.0,
        0.0,
        0.0,
        0.0,
        0.0,
        0.0,
        1.0,
        0.0,
        0.0,
        -1.0,
        0.0,
        0.0,
        0.0,
        0.0,
        0.0,
        1.0
      ],
      "name": "scene.fbx"
    },
    {
      "children": [
        3
      ],
      "name": "Object_2"
    },
    {
      "children": [
        4,
        6,
        8,
        10,
        12,
        14
      ],
      "name": "RootNode"
    },
    {
      "children": [
        5
      ],
      "name": "body_helmet_LP:hemet"
    },
    {
      "mesh": 0,
      "name": "body_helmet_LP:hemet_helmet_0"
    },
    {
      "children": [
        7
      ],
      "name": "body_helmet_LP:body"
    },
    {
      "mesh": 1,
      "name": "body_helmet_LP:body_body_0"
    },
    {
      "children": [
        9
      ],
      "name": "shape_small1",
      "translation": [
        -2.596747875213623,
        0.1727762371301651,
        2.959848403930664
      ]
    },
    {
      "mesh": 2,
      "name": "shape_small1_shape_small_0"
    },
    {
      "children": [
        11
      ],
      "name": "shapes_big"
    },
    {
      "mesh": 3,
      "name": "shapes_big_lambert4_0"
    },
    {
      "children": [
        13
      ],
      "name": "back"
    },
    {
      "mesh": 4,
      "name": "back_sphere_0"
    },
    {
      "children": [
        15
      ],
      "name": "screens",
      "translation": [
        -0.1312953382730484,
        -0.4661213457584381,
        -0.028878487646579742
      ]
    },
    {
      "mesh": 5,
      "name": "screens_lambert1_0"
    }
  ],
  "samplers": [
    {
      "magFilter": 9729,
      "minFilter": 9987,
      "wrapS": 10497,
      "wrapT": 10497
    }
  ],
  "scene": 0,
  "scenes": [
    {
      "name": "Sketchfab_Scene",
      "nodes": [
        0
      ]
    }
  ],
  "textures": [
    {
      "sampler": 0,
      "source": 0
    },
    {
      "sampler": 0,
      "source": 1
    },
    {
      "sampler": 0,
      "source": 2
    },
    {
      "sampler": 0,
      "source": 3
    },
    {
      "sampler": 0,
      "source": 4
    },
    {
      "sampler": 0,
      "source": 5
    },
    {
      "sampler": 0,
      "source": 6
    },
    {
      "sampler": 0,
      "source": 7
    },
    {
      "sampler": 0,
      "source": 8
    },
    {
      "sampler": 0,
      "source": 9
    },
    {
      "sampler": 0,
      "source": 10
    },
    {
      "sampler": 0,
      "source": 11
    },
    {
      "sampler": 0,
      "source": 12
    }
  ]
}
