{
  "accessors": [
    {
      "bufferView": 2,
      "componentType": 5126,
      "count": 2687,
      "max": [
        8.6250944137573242,
        1.7422161102294922,
        17.347080230712891
      ],
      "min": [
        -8.6252956390380859,
        -0.0086902379989624023,
        0.096899986267089844
      ],
      "type": "VEC3"
    },
    {
      "bufferView": 2,
      "byteOffset": 32244,
      "componentType": 5126,
      "count": 2687,
      "max": [
        1,
        1,
        0.99999153614044189
      ],
      "min": [
        -0.99999290704727173,
        -0.52975708246231079,
        -0.99998706579208374
      ],
      "type": "VEC3"
    },
    {
      "bufferView": 3,
      "componentType": 5126,
      "count": 2687,
      "max": [
        0.99949008226394653,
        1,
        0.99916642904281616,
        1
      ],
      "min": [
        -0.99994045495986938,
        -1,
        -0.99989372491836548,
        -1
      ],
      "type": "VEC4"
    },
    {
      "bufferView": 1,
      "componentType": 5126,
      "count": 2687,
      "max": [
        11.454067230224609,
        9.6558895111083984
      ],
      "min": [
        -2.0739035606384277,
        -4.2682547569274902
      ],
      "type": "VEC2"
    },
    {
      "bufferView": 0,
      "componentType": 5125,
      "count": 4362,
      "max": [
        2686
      ],
      "min": [
        0
      ],
      "type": "SCALAR"
    }
  ],
  "asset": {
    "extras": {
      "author": "mozillareality (https://sketchfab.com/mozillareality)",
      "license": "CC-BY-4.0 (http://creativecommons.org/licenses/by/4.0/)",
      "source": "https://sketchfab.com/models/b00abd35578e4f628f4bcd3625ce5951",
      "title": "Skyline Cutout - City - large"
    },
    "generator": "Sketchfab-3.42.2",
    "version": "2.0"
  },
  "bufferViews": [
    {
      "buffer": 0,
      "byteLength": 17448,
      "byteOffset": 0,
      "name": "floatBufferViews",
      "target": 34963
    },
    {
      "buffer": 0,
      "byteLength": 21496,
      "byteOffset": 17448,
      "byteStride": 8,
      "name": "floatBufferViews",
      "target": 34962
    },
    {
      "buffer": 0,
      "byteLength": 64488,
      "byteOffset": 38944,
      "byteStride": 12,
      "name": "floatBufferViews",
      "target": 34962
    },
    {
      "buffer": 0,
      "byteLength": 42992,
      "byteOffset": 103432,
      "byteStride": 16,
      "name": "floatBufferViews",
      "target": 34962
    }
  ],
  "buffers": [
    {
      "byteLength": 146424,
      "uri": "scene.bin"
    }
  ],
  "materials": [
    {
      "doubleSided": false,
      "name": "lambert2",
      "pbrMetallicRoughness": {
        "baseColorFactor": [
          0,
          0,
          0,
          1
        ],
        "metallicFactor": 0,
        "roughnessFactor": 1
      }
    }
  ],
  "meshes": [
    {
      "name": "SkylineCutoutLarge_lambert2_0",
      "primitives": [
        {
          "attributes": {
            "NORMAL": 1,
            "POSITION": 0,
            "TANGENT": 2,
            "TEXCOORD_0": 3
          },
          "indices": 4,
          "material": 0,
          "mode": 4
        }
      ]
    }
  ],
  "nodes": [
    {
      "children": [
        1
      ],
      "name": "RootNode (gltf orientation matrix)",
      "rotation": [
        -0.70710678118654746,
        -0,
        -0,
        0.70710678118654757
      ]
    },
    {
      "children": [
        2
      ],
      "name": "RootNode (model correction matrix)"
    },
    {
      "children": [
        3
      ],
      "matrix": [
        1,
        0,
        0,
        0,
        0,
        0,
        1,
        0,
        0,
        -1,
        0,
        0,
        0,
        0,
        0,
        1
      ],
      "name": "ea95d5a7aca545e281206bbe0bc3f3e8.fbx"
    },
    {
      "children": [
        4
      ],
      "name": "RootNode"
    },
    {
      "children": [
        5
      ],
      "matrix": [
        500,
        0,
        0,
        0,
        0,
        500,
        0,
        0,
        0,
        0,
        500,
        0,
        0,
        0,
        -4360.9951171875,
        1
      ],
      "name": "SkylineCutoutLarge"
    },
    {
      "mesh": 0,
      "name": "SkylineCutoutLarge_lambert2_0"
    }
  ],
  "scene": 0,
  "scenes": [
    {
      "name": "OSG_Scene",
      "nodes": [
        0
      ]
    }
  ]
}

